<svg width="11" height="11" viewBox="0 0 11 11" fill="none" xmlns="http://www.w3.org/2000/svg">
<path d="M5.07813 0C4.07377 0 3.09197 0.297827 2.25687 0.855818C1.42178 1.41381 0.770903 2.2069 0.386551 3.13481C0.00220019 4.06272 -0.0983635 5.08376 0.0975771 6.06882C0.293518 7.05388 0.777162 7.95871 1.48735 8.6689C2.19754 9.37909 3.10237 9.86273 4.08743 10.0587C5.07249 10.2546 6.09353 10.1541 7.02144 9.7697C7.94935 9.38535 8.74244 8.73447 9.30043 7.89938C9.85842 7.06429 10.1563 6.08248 10.1563 5.07812C10.1548 3.73178 9.61928 2.44099 8.66727 1.48898C7.71526 0.536969 6.42448 0.00147855 5.07813 0ZM5.07813 9.75C4.15412 9.75 3.25086 9.476 2.48257 8.96265C1.71429 8.44929 1.11548 7.71965 0.761877 6.86597C0.408274 6.0123 0.315756 5.07294 0.496021 4.16669C0.676286 3.26043 1.12124 2.42798 1.77461 1.77461C2.42799 1.12124 3.26043 0.676284 4.16669 0.496019C5.07294 0.315753 6.0123 0.408272 6.86598 0.761875C7.71965 1.11548 8.4493 1.71428 8.96265 2.48257C9.476 3.25086 9.75 4.15412 9.75 5.07812C9.74866 6.31677 9.25601 7.5043 8.38016 8.38015C7.5043 9.25601 6.31677 9.74866 5.07813 9.75ZM6.86563 6.41926C6.58418 6.7943 6.19187 7.07129 5.74427 7.21101C5.29667 7.35072 4.81645 7.34608 4.37164 7.19774C3.92682 7.0494 3.53994 6.76487 3.2658 6.38446C2.99165 6.00405 2.84413 5.54703 2.84413 5.07812C2.84413 4.60922 2.99165 4.1522 3.2658 3.77179C3.53994 3.39138 3.92682 3.10685 4.37164 2.95851C4.81645 2.81017 5.29667 2.80553 5.74427 2.94524C6.19187 3.08496 6.58418 3.36195 6.86563 3.73699C6.88166 3.75833 6.89334 3.78262 6.89999 3.80847C6.90664 3.83433 6.90814 3.86124 6.90439 3.88767C6.90064 3.9141 6.89172 3.93953 6.87815 3.96251C6.86457 3.9855 6.8466 4.00558 6.82526 4.02162C6.80392 4.03766 6.77963 4.04934 6.75377 4.05599C6.72792 4.06264 6.70101 4.06413 6.67458 4.06038C6.64815 4.05664 6.62272 4.04772 6.59973 4.03414C6.57675 4.02056 6.55667 4.00259 6.54063 3.98125C6.31041 3.6743 5.98945 3.44756 5.62321 3.33315C5.25698 3.21875 4.86402 3.22248 4.50002 3.34381C4.13602 3.46515 3.81942 3.69793 3.59507 4.0092C3.37073 4.32047 3.25 4.69443 3.25 5.07812C3.25 5.46182 3.37073 5.83578 3.59507 6.14705C3.81942 6.45831 4.13602 6.6911 4.50002 6.81244C4.86402 6.93377 5.25698 6.9375 5.62321 6.82309C5.98945 6.70869 6.31041 6.48195 6.54063 6.175C6.57302 6.1319 6.6212 6.10344 6.67458 6.09587C6.72796 6.08829 6.78216 6.10224 6.82526 6.13463C6.86835 6.16702 6.89682 6.2152 6.90439 6.26858C6.91196 6.32196 6.89802 6.37616 6.86563 6.41926Z" fill="#363636"/>
</svg>
