<svg width="88" height="48" viewBox="0 0 88 48" fill="none" xmlns="http://www.w3.org/2000/svg">
<path d="M2 34.7754C4.48031 30.2189 9.93701 32.0415 10.9291 34.7754C11.9213 37.5093 19.3622 37.965 20.3543 34.7754C21.3465 31.5857 26.8031 31.5859 28.7874 34.7754C30.7717 37.9649 37.2205 37.0537 38.7087 34.7754C40.1969 32.497 45.1575 32.0416 47.6378 34.7754C50.1181 37.5092 55.0787 37.0537 56.5669 34.7754C58.0551 32.497 63.5118 32.0416 65 34.7754" stroke="#2980B9" stroke-width="3" stroke-linecap="round"/>
<path d="M2 43.7754C4.48031 39.2189 9.93701 41.0415 10.9291 43.7754C11.9213 46.5093 19.3622 46.965 20.3543 43.7754C21.3465 40.5857 26.8031 40.5859 28.7874 43.7754C30.7717 46.9649 37.2205 46.0537 38.7087 43.7754C40.1969 41.497 45.1575 41.0416 47.6378 43.7754C50.1181 46.5092 55.0787 46.0537 56.5669 43.7754C58.0551 41.497 63.5118 41.0416 65 43.7754" stroke="#2980B9" stroke-width="3" stroke-linecap="round"/>
<path d="M2 25.7754C4.48031 21.2189 9.93701 23.0415 10.9291 25.7754C11.9213 28.5093 19.3622 28.965 20.3543 25.7754C21.3465 22.5857 26.8031 22.5859 28.7874 25.7754C30.7717 28.9649 37.2205 28.0537 38.7087 25.7754C40.1969 23.497 45.1575 23.0416 47.6378 25.7754C50.1181 28.5092 55.0787 28.0537 56.5669 25.7754C58.0551 23.497 63.5118 23.0416 65 25.7754" stroke="#2980B9" stroke-width="3" stroke-linecap="round"/>
<mask id="path-4-inside-1_263_15" fill="white">
<path d="M58.4303 15.7897C59.1564 13.8851 60.3975 12.2197 62.015 10.9794C63.6325 9.73905 65.5629 8.97256 67.5907 8.76541C69.6184 8.55827 71.6639 8.91862 73.4988 9.80627C75.3337 10.6939 76.8859 12.0739 77.9821 13.7924C79.0784 15.5108 79.6756 17.5 79.7072 19.5381C79.7388 21.5762 79.2034 23.583 78.1609 25.3345C77.1184 27.0861 75.6097 28.5135 73.8032 29.4575C71.9967 30.4016 69.9633 30.8251 67.9301 30.6809L68.1584 27.4629C69.5953 27.5648 71.0323 27.2655 72.309 26.5983C73.5857 25.9311 74.6519 24.9223 75.3887 23.6845C76.1255 22.4466 76.5038 21.0284 76.4815 19.5881C76.4592 18.1477 76.0371 16.7419 75.2623 15.5275C74.4876 14.313 73.3906 13.3377 72.0939 12.7104C70.7971 12.0831 69.3516 11.8284 67.9185 11.9748C66.4854 12.1212 65.1212 12.6629 63.9781 13.5395C62.835 14.416 61.9579 15.593 61.4447 16.939L58.4303 15.7897Z"/>
</mask>
<path d="M58.4303 15.7897C59.1564 13.8851 60.3975 12.2197 62.015 10.9794C63.6325 9.73905 65.5629 8.97256 67.5907 8.76541C69.6184 8.55827 71.6639 8.91862 73.4988 9.80627C75.3337 10.6939 76.8859 12.0739 77.9821 13.7924C79.0784 15.5108 79.6756 17.5 79.7072 19.5381C79.7388 21.5762 79.2034 23.583 78.1609 25.3345C77.1184 27.0861 75.6097 28.5135 73.8032 29.4575C71.9967 30.4016 69.9633 30.8251 67.9301 30.6809L68.1584 27.4629C69.5953 27.5648 71.0323 27.2655 72.309 26.5983C73.5857 25.9311 74.6519 24.9223 75.3887 23.6845C76.1255 22.4466 76.5038 21.0284 76.4815 19.5881C76.4592 18.1477 76.0371 16.7419 75.2623 15.5275C74.4876 14.313 73.3906 13.3377 72.0939 12.7104C70.7971 12.0831 69.3516 11.8284 67.9185 11.9748C66.4854 12.1212 65.1212 12.6629 63.9781 13.5395C62.835 14.416 61.9579 15.593 61.4447 16.939L58.4303 15.7897Z" stroke="#2980B9" stroke-width="48" mask="url(#path-4-inside-1_263_15)"/>
<path d="M63 12L57 6" stroke="#2980B9" stroke-width="3" stroke-linecap="round"/>
<path d="M68.2673 10.2341L67.7327 1.76571" stroke="#2980B9" stroke-width="3" stroke-linecap="round"/>
<path d="M73.7228 11.6292L78.8119 4.83942" stroke="#2980B9" stroke-width="3" stroke-linecap="round"/>
<path d="M77.7552 15.6646L86.0186 13.7368" stroke="#2980B9" stroke-width="3" stroke-linecap="round"/>
<path d="M78 23L86.1914 25.2139" stroke="#2980B9" stroke-width="3" stroke-linecap="round"/>
<path d="M73 28L77.8847 34.9383" stroke="#2980B9" stroke-width="3" stroke-linecap="round"/>
</svg>
